<svg version="1.1" viewBox="0.0 0.0 217.73490813648294 202.66929133858267" fill="none" stroke="none" stroke-linecap="square" stroke-miterlimit="10" xmlns:xlink="http://www.w3.org/1999/xlink" xmlns="http://www.w3.org/2000/svg"><clipPath id="p.0"><path d="m0 0l217.73491 0l0 202.6693l-217.73491 0l0 -202.6693z" clip-rule="nonzero"/></clipPath><g clip-path="url(#p.0)"><path fill="#000000" fill-opacity="0.0" d="m0 0l217.73491 0l0 202.6693l-217.73491 0z" fill-rule="evenodd"/><path fill="#f4cccc" d="m-2.1521451 -2.0209973l39.02362 0l0 210.01575l-39.02362 0z" fill-rule="evenodd"/><path fill="#fce5cd" d="m36.869408 -2.0209973l36.598427 0l0 210.01575l-36.598427 0z" fill-rule="evenodd"/><path fill="#fff2cc" d="m73.46452 -2.0209973l36.59842 0l0 210.01575l-36.59842 0z" fill-rule="evenodd"/><path fill="#d9ead3" d="m110.05963 -2.0209973l36.59842 0l0 210.01575l-36.59842 0z" fill-rule="evenodd"/><path fill="#d0e0e3" d="m146.65474 -2.0209973l36.598434 0l0 210.01575l-36.598434 0z" fill-rule="evenodd"/><path fill="#c9daf8" d="m183.24986 -2.0209973l36.59842 0l0 210.01575l-36.59842 0z" fill-rule="evenodd"/><g filter="url(#shadowFilter-p.1)"><use xlink:href="#p.1" transform="matrix(1.0 0.0 0.0 1.0 0.0 2.0)"/></g><defs><filter id="shadowFilter-p.1" filterUnits="userSpaceOnUse"><feGaussianBlur in="SourceAlpha" stdDeviation="24.0" result="blur"/><feComponentTransfer in="blur" color-interpolation-filters="sRGB"><feFuncR type="linear" slope="0" intercept="0.0"/><feFuncG type="linear" slope="0" intercept="0.0"/><feFuncB type="linear" slope="0" intercept="0.0"/><feFuncA type="linear" slope="0.5" intercept="0"/></feComponentTransfer></filter></defs><g id="p.1"><path fill="#000000" fill-opacity="0.0" d="m-3.4986877 94.638016l250.99213 -78.33071l24.125977 78.77166l-250.99213 78.3307z" fill-rule="evenodd"/><path fill="#000000" d="m28.161703 134.62477q-3.7437935 1.1683655 -6.481735 -0.30145264q-2.7230263 -1.474472 -3.789196 -4.955536q-0.9517765 -3.1075592 -0.4425354 -5.819931q0.5092411 -2.7123642 2.0638866 -4.5724792q1.5649853 -1.8797073 3.6979046 -2.5453568q2.1030865 -0.65634155 3.6462917 0.22061157q1.5432053 0.8769531 2.142641 2.834114q0.49419022 1.6135406 0.11685753 2.9425507q-0.3624153 1.3243561 -1.4959946 1.6781311q-0.73085976 0.22808838 -1.2835712 0.024108887q-0.5377941 -0.20863342 -0.72540283 -0.82118225q-0.082365036 -0.2689209 -0.11303139 -0.6358185q-0.030668259 -0.36689758 -0.031679153 -0.5302658q0.015443802 -0.64318085 -0.13555908 -1.1362076q-0.15100288 -0.49302673 -0.48693275 -0.68281555q-0.33592796 -0.18978882 -0.78339386 -0.05014038q-0.8800144 0.27463531 -1.4131012 1.3085175q-0.52274895 1.0142899 -0.5733032 2.503212q-0.040216446 1.4693222 0.45397568 3.0828629q1.359026 4.4372406 5.222143 3.2316132q1.5661297 -0.48875427 3.0505962 -2.097824q1.4948082 -1.6286469 2.6096458 -4.284485q0.28273392 -0.67749786 0.8644409 -0.8590393q0.4922104 -0.15361023 0.9174576 0.22109222q0.42524338 0.37470245 0.66776276 1.1665344q0.44843292 1.4641342 0.011615753 2.5989227q-1.1229744 2.7893295 -3.2581406 4.781502q-2.1248226 1.9725952 -4.451643 2.698761zm11.074465 -3.4561768q-2.3715668 0.74012756 -4.314762 -0.5357666q-1.9328575 -1.2955017 -2.7839622 -4.074379q-0.9380493 -3.0627441 -0.37337112 -6.2343597q0.57959366 -3.176262 2.413414 -5.565445q1.8441544 -2.4087753 4.4841995 -3.232689q0.8352699 -0.26068115 1.2193336 -0.020439148q0.37948608 0.22530365 0.83421326 1.0163803q0.7596779 -0.40076447 1.6396942 -0.6754074q1.8644371 -0.5818634 2.2716904 0.747818q0.2470932 0.8067703 0.6046257 4.0015717q0.46985626 4.6819916 0.9960785 6.400116q0.17388153 0.56772614 0.5625229 0.8229065q0.38863754 0.25518036 0.851017 0.11087799q0.73086166 -0.22808838 1.4763298 -1.475563q0.7408943 -1.2624207 1.8557281 -3.9182663q0.28273773 -0.67749786 0.8644409 -0.8590393q0.4922142 -0.15361023 0.9174576 0.22109222q0.4252472 0.37470245 0.6677666 1.1665344q0.47130966 1.5388412 0.011615753 2.5989227q-0.9666939 2.4459305 -2.3148994 4.3398285q-1.3527794 1.878952 -2.9934883 2.3909836q-1.252903 0.39102173 -2.5727272 -0.13008118q-1.3094864 -0.54067993 -2.3040276 -1.8671265q-0.99995804 3.8312378 -4.01289 4.77153zm0.1870842 -4.2977524q0.8352661 -0.26067352 1.293953 -1.4841309q0.46902466 -1.243042 0.3087387 -2.9935303l-0.7531624 -7.474388q-1.5822334 0.5429001 -2.5826302 2.1318283q-1.0003929 1.5889282 -1.2201233 3.7526398q-0.20481491 2.15905 0.44953156 4.295494q0.36148834 1.180275 1.0172424 1.6139908q0.65118027 0.41876984 1.4864502 0.15809631zm15.775486 -0.6839142q-1.4617195 0.4561844 -2.5250778 -0.88152313q-1.0530167 -1.3572922 -2.0825806 -4.7188416q-1.5237541 -4.975075 -1.4795341 -9.899345q0.0044441223 -1.2126389 0.6244736 -1.9626617q0.6303673 -0.7696152 2.032425 -1.2071762q0.77560806 -0.2420578 1.1334038 -0.14093018q0.37271118 0.096466064 0.5328636 0.61937714q0.18761063 0.6125488 0.26482773 2.9454727q0.09384918 1.640274 0.2075386 2.8651428q0.1286087 1.2202225 0.49194717 2.940071q0.24621964 -3.6778564 1.1808815 -6.228363q0.93466187 -2.5505066 2.171154 -3.9021225q1.2364922 -1.3516159 2.5043106 -1.7472839q2.475975 -0.7727127 3.2355652 1.7073593q0.45758438 1.4940186 0.81661224 5.6540756q0.28955078 3.5597534 0.6190109 4.6354446q0.46673584 1.5239029 1.570488 1.1794434q0.77560425 -0.2420578 1.5359879 -1.494194q0.75580597 -1.2670746 1.8706436 -3.9229202q0.2976532 -0.68214417 0.8644409 -0.8590317q0.50712585 -0.15826416 0.93237305 0.2164383q0.4252472 0.37470245 0.66776276 1.1665268q0.47131348 1.5388412 -0.0032958984 2.6035843q-1.0183945 2.5438995 -2.5145645 4.434868q-1.4812622 1.8863144 -3.88266 2.6357574q-1.9539261 0.609787 -3.2964554 -0.19884491q-1.3321877 -0.8282318 -1.9911118 -2.979622q-0.3248825 -1.0607529 -0.63445663 -3.9922638q-0.2444992 -2.5589752 -0.5236244 -3.4703293q-0.18761063 -0.6125488 -0.6052437 -0.48220825q-0.4922104 0.15361023 -1.0085373 1.7224121q-0.50598145 1.5492096 -0.80046463 3.9490356q-0.27956772 2.395172 -0.14744186 4.907379q0.13146591 1.9231567 -0.22364807 2.7378159q-0.3596878 0.79972076 -1.5380135 1.1674576zm35.23935 -20.556694q0.4922104 -0.15361023 0.9174576 0.22109222q0.44015503 0.37004852 0.6826782 1.1618729q0.47131348 1.5388412 -0.0033035278 2.6035843q-0.98041534 2.4011078 -2.4433746 4.347183q-1.4480362 1.9414139 -3.2826462 2.5139694q-2.893608 0.9030533 -5.473198 -2.023857q-0.97364044 2.5299377 -1.9713135 3.5942307q-0.98274994 1.0596466 -2.593628 1.5623703q-2.3268204 0.7261658 -4.3640823 -0.5367508q-2.0418396 -1.2778549 -2.897522 -4.0716705q-0.9380493 -3.0627365 -0.44116974 -6.082245q0.49230194 -3.0344543 2.2515411 -5.40036q1.7592392 -2.3658981 4.497093 -3.5640793q-1.5536728 -7.633766 -1.1209488 -13.530434q0.43273163 -5.89666 3.7588882 -6.9347076q1.6407089 -0.5120392 3.1871262 0.64217377q1.5418396 1.1392746 2.4707336 4.172127q1.3086929 4.272896 0.9627304 10.666267q-0.34596252 6.3933716 -1.9978943 13.538048q0.82637787 2.1645966 1.6263657 2.9625015q0.81489563 0.79325104 1.6203308 0.5418854q1.0291672 -0.32118225 1.8239594 -1.567688q0.79021454 -1.2614441 1.9257355 -3.956482q0.29764557 -0.68214417 0.8644409 -0.8590317zm-11.757202 -22.274414q-0.73085785 0.22808838 -0.67009735 3.0408325q0.075675964 2.8080826 0.83029175 7.1393204q0.76953125 4.326576 1.9265213 8.957809q1.420845 -10.673569 -0.31339264 -16.3359q-0.44386292 -1.4491959 -0.94451904 -2.176834q-0.48574066 -0.7322922 -0.828804 -0.6252289zm-2.2528687 31.966415q0.7159424 -0.22343445 1.2683411 -1.034195q0.5478287 -0.82569885 1.1573868 -2.783699q-1.0192719 -1.9407196 -1.8017349 -4.495491q-0.28370667 -0.9262924 -0.84059143 -3.0113144q-1.9063263 1.2987747 -2.6299744 3.8980026q-0.7236481 2.5992355 0.081703186 5.2287064q0.8556824 2.7938156 2.7648697 2.1979904zm22.505623 -22.524376q0.88002014 -0.27463531 1.2962875 -0.14265442q0.4116974 0.11703491 0.57642365 0.65488434q0.27912903 0.91135406 1.0003052 6.8407364q0.77186584 5.668045 0.9292908 6.7155914q1.5939331 10.272858 0.8750763 16.7826q-0.7188492 6.509735 -4.8504486 7.7991486q-1.9390182 0.60513306 -3.53273 -0.22331238q-1.5891418 -0.81352234 -2.1885757 -2.7706757q-0.5491028 -1.7928238 -0.30530548 -3.931305q0.24837494 -2.1235428 1.7249222 -5.2523727q1.4960403 -3.1185455 4.621971 -7.531433l-0.15065765 -0.9187088q-0.16622162 -1.5031052 -0.63308716 -4.2545776q0.08583832 3.0013351 -0.8620224 4.8684998q-0.93294525 1.862503 -2.4543304 2.3373032q-1.7152863 0.53531647 -3.289154 -0.70853424q-1.5784531 -1.2587967 -2.3014297 -3.6193466q-0.8785629 -2.868515 -1.2378159 -5.375313q-0.34432983 -2.5114594 -0.28796387 -5.475334q0.040039062 -1.2564774 0.57514954 -1.9636307q0.53053284 -0.7220917 2.022087 -1.1875839q0.8352661 -0.26067352 1.2308578 -0.08950043q0.4105072 0.16651154 0.5752411 0.70436096q0.09151459 0.29880524 0.21382904 2.1920853q0.061820984 1.5356903 0.17093658 2.7456207q0.1821518 1.6618195 0.38278198 3.170555q0.21554565 1.5040817 0.49925232 2.4303665q0.4438553 1.4492035 1.2492905 1.1978378q0.56679535 -0.17688751 1.0692139 -1.5776672q0.51275635 -1.4203796 0.7684326 -4.0536194q0.26602173 -2.652832 0.13257599 -6.3431396q-0.03453827 -1.2332077 0.44091034 -1.9217453q0.47087097 -0.7034683 1.7386856 -1.0991364zm-0.89481354 34.799866q0.9545975 -0.2979126 1.4556961 -2.8768005q0.5160141 -2.5835342 0.11109924 -8.120575q-2.1787643 3.3970795 -2.864441 5.8535233q-0.6856766 2.4564362 -0.2143631 3.9952698q0.19676208 0.64243317 0.56352997 0.9862747q0.38169098 0.33919525 0.9484787 0.16230774zm38.029335 -36.207924q0.49221802 -0.15361023 0.9174652 0.22109222q0.44015503 0.37004852 0.6826782 1.1618729q0.47131348 1.5388412 -0.0032958984 2.6035843q-1.0184021 2.5438995 -2.5145721 4.434868q-1.49617 1.8909683 -3.8975677 2.6404114q-2.0285034 0.63306427 -3.7252655 -0.42512512q-1.7475357 2.083992 -4.105377 2.8689423q1.7682495 7.5340652 1.5228271 13.028542q-0.22593689 5.5047607 -3.6266708 6.566078q-2.0732574 0.6470337 -3.5152664 -0.5397644q-1.4569244 -1.1821365 -2.2622757 -3.8116074q-1.1485367 -3.7499847 -0.9466629 -9.279976q0.18695068 -5.525337 1.927185 -12.648468q-1.7113647 -5.5876236 -2.4540176 -7.7456207q-0.36843872 -1.0962601 0.34464264 -2.0226364q0.7234268 -0.94597626 2.0956497 -1.3742294q0.8054428 -0.25135803 1.2640839 -0.03439331q0.45406342 0.20202637 0.7916641 1.1442337q0.2928543 0.9561691 0.46453857 1.4100037q0.7563324 -1.9055939 1.7287445 -2.9456406q0.9873276 -1.0447006 2.3297272 -1.4636459q2.1329193 -0.6656494 4.016449 0.62887573q1.8835297 1.2945251 2.739212 4.0883408q0.62231445 2.031868 0.55174255 4.149025q-0.055648804 2.112503 -0.72369385 4.03965q0.8740845 -0.027259827 1.3961182 -0.19017792q1.2678223 -0.39566803 2.122284 -1.6607895q0.86479187 -1.2847214 2.015213 -3.9844131q0.2976532 -0.68214417 0.8644409 -0.8590317zm-13.57769 9.769852q1.2807083 -0.7270584 2.0734787 -2.300293q0.79276276 -1.5732422 0.93434906 -3.5652466q0.1565094 -1.9966583 -0.4383545 -3.9388885q-0.3523407 -1.1503906 -0.9977493 -1.6036987q-0.64541626 -0.45330048 -1.4061127 -0.21590424q-1.3722229 0.42825317 -2.4338684 3.9513779q0.48724365 1.6975479 1.4802017 4.939575q0.5399475 1.7629395 0.7880554 2.733078zm-2.022316 19.487335q1.0291672 -0.32118988 0.33795166 -5.0323105q-0.6912155 -4.7111206 -2.547287 -11.464836q-0.4692917 4.3367233 -0.3577118 8.1157q0.111579895 3.7789764 0.8391342 6.1544724q0.37522125 1.22509 0.87029266 1.7744217q0.48473358 0.56892395 0.85762024 0.4525528zm20.947525 -21.367012q-2.3715668 0.74012756 -4.3147583 -0.53578186q-1.9328613 -1.2955017 -2.783966 -4.0743713q-0.9380493 -3.0627365 -0.3733673 -6.234352q0.57958984 -3.1762695 2.4134064 -5.5654526q1.844162 -2.4087753 4.484207 -3.232689q0.8352661 -0.26067352 1.2193298 -0.020431519q0.37948608 0.22529602 0.83421326 1.0163727q0.7596741 -0.40076447 1.6396942 -0.6753998q1.8644409 -0.5818634 2.2716827 0.74781036q0.24710083 0.8067703 0.6046295 4.0015717q0.4698639 4.681999 0.9960785 6.400116q0.17388916 0.56772614 0.5625305 0.8229065q0.38864136 0.255188 0.8510132 0.11088562q0.7308655 -0.22809601 1.4763336 -1.4755707q0.7408905 -1.2624207 1.8557281 -3.9182663q0.2827301 -0.67749023 0.8644409 -0.8590317q0.49220276 -0.15361786 0.91744995 0.22109222q0.4252472 0.37470245 0.6677704 1.1665268q0.47131348 1.5388412 0.0116119385 2.5989304q-0.96669006 2.4459229 -2.3148956 4.339821q-1.3527832 1.878952 -2.9934845 2.3909912q-1.2528992 0.3910141 -2.5727234 -0.13008118q-1.309494 -0.54068756 -2.3040314 -1.8671265q-0.9999542 3.8312378 -4.0128937 4.77153zm0.18708801 -4.29776q0.8352661 -0.26067352 1.2939453 -1.4841309q0.46902466 -1.243042 0.30874634 -2.9935303l-0.75315857 -7.474388q-1.5822449 0.5429001 -2.5826416 2.1318283q-1.0003967 1.5889282 -1.2201233 3.7526398q-0.20480347 2.15905 0.44953918 4.2955017q0.3614807 1.180275 1.0172424 1.6139832q0.6511841 0.41876984 1.4864502 0.15809631zm11.765778 -21.938866q-1.5959625 0.4980774 -2.630188 0.0024261475q-1.0342407 -0.49564362 -1.4414825 -1.8253174q-0.41183472 -1.3446198 0.3577118 -2.5668716q0.7844391 -1.2269058 2.3505707 -1.7156754q1.4169769 -0.44221497 2.492569 -0.02494812q1.0904999 0.41261292 1.4748688 1.6675873q0.47131348 1.5388336 -0.253479 2.7471237q-0.7098694 1.2036362 -2.3505707 1.7156754zm5.993469 20.635857q-2.4908905 0.77736664 -4.1644135 -0.6318054q-1.6586151 -1.413826 -2.5463257 -4.3122177q-0.52622986 -1.7181244 -0.9173279 -4.542351q-0.38076782 -2.8438187 -0.41305542 -5.403557q-0.032165527 -1.3321533 0.39735413 -1.9572449q0.43984985 -0.64469147 1.7076721 -1.0403519q1.9390106 -0.6051407 2.3371124 0.6946564q0.29284668 0.9561691 0.64308167 4.6606674q0.36561584 4.5017395 0.81863403 5.9808197q0.3523407 1.1503906 0.83825684 1.6698456q0.50083923 0.5147934 1.2316895 0.28670502q0.6861267 -0.21412659 1.4224396 -1.4914856q0.73631287 -1.2773666 1.8201294 -3.8744202q0.2976532 -0.6821518 0.8644409 -0.8590393q0.50712585 -0.15826416 0.93237305 0.2164383q0.4252472 0.37470245 0.6677704 1.1665344q0.47131348 1.5388412 -0.0033111572 2.6035767q-2.3551025 5.8091507 -5.6365204 6.833229zm7.409424 -2.3123703q-1.4617157 0.4561844 -2.5250702 -0.88152313q-1.0530243 -1.3572998 -2.0825806 -4.7188416q-1.5237579 -4.9750824 -1.479538 -9.899353q0.0044403076 -1.2126312 0.62446594 -1.9626541q0.6303711 -0.7696152 2.032425 -1.2071762q0.7756195 -0.2420578 1.1334076 -0.14093018q0.37271118 0.096466064 0.53286743 0.61937714q0.18760681 0.6125488 0.26483154 2.9454727q0.09384155 1.640274 0.20753479 2.8651428q0.12860107 1.2202225 0.49194336 2.940071q0.24621582 -3.6778564 1.1808777 -6.228363q0.93466187 -2.5505066 2.1711578 -3.9021225q1.236496 -1.3516159 2.5043182 -1.7472839q2.4759674 -0.7727127 3.2355652 1.7073593q0.45758057 1.4940186 0.8166046 5.6540756q0.28955078 3.5597534 0.61901855 4.6354446q0.46673584 1.5239029 1.5704803 1.1794357q0.77560425 -0.24205017 1.5359955 -1.4941864q0.75579834 -1.2670746 1.870636 -3.9229202q0.2976532 -0.68214417 0.8644409 -0.8590317q0.50712585 -0.15826416 0.93237305 0.2164383q0.4252472 0.37470245 0.6677704 1.1665268q0.47131348 1.5388412 -0.0032958984 2.6035843q-1.0184021 2.5438995 -2.5145721 4.434868q-1.4812622 1.8863144 -3.88266 2.6357574q-1.9539185 0.609787 -3.2964478 -0.19884491q-1.3321991 -0.8282318 -1.9911194 -2.979622q-0.32487488 -1.0607529 -0.6344452 -3.9922638q-0.24450684 -2.5589828 -0.52363586 -3.4703293q-0.18760681 -0.6125488 -0.60523987 -0.48220825q-0.49221802 0.15361023 -1.0085297 1.7224121q-0.5059967 1.5492096 -0.8004761 3.9490356q-0.27957153 2.395172 -0.14744568 4.907379q0.13146973 1.9231567 -0.22364807 2.7378159q-0.35968018 0.79972076 -1.5380096 1.1674576zm18.11229 -21.415169q0.5111389 1.9356155 0.84059143 3.0113068q0.8419647 2.7490005 1.6012421 4.2143326q0.77420044 1.4606781 1.6363983 1.9281769q0.8725281 0.44789886 2.0657654 0.07550049q0.5966339 -0.18619537 1.3175049 -0.82037354q0.7312012 -0.65377045 1.2297058 -1.4804459q0.29866028 -0.51878357 0.73121643 -0.65377045q0.447464 -0.13964844 0.8910217 0.29481506q0.45846558 0.42980957 0.6781006 1.1469345q0.22421265 0.7320709 0.13639832 1.5124207q-0.072906494 0.7756882 -0.4978485 1.4157181q-1.480423 2.2625275 -4.0011444 3.049202q-3.624466 1.1311417 -6.2388153 -1.3757172q-2.618927 -2.5217896 -4.1197968 -7.4221725q-0.5170746 -1.68824 -0.9239807 -3.4436035l-1.4915466 0.46549225q-1.1484985 0.35842896 -1.6793365 0.06578064q-0.5159302 -0.29729462 -0.7996216 -1.223587q-0.6543579 -2.136444 1.0609283 -2.6717606l2.1776733 -0.6796112q-0.64445496 -4.3983536 -0.38313293 -8.293705q0.2762146 -3.9000015 1.5390167 -6.5529213q1.2582397 -2.6678581 3.4358978 -3.3474731q1.5959625 -0.49807358 2.940506 0.63729477q1.3594666 1.1307144 2.0138245 3.2671623q1.8166046 5.9312515 -1.8049622 11.873749l4.2807465 -1.3359566q0.61154175 -0.1908493 0.9623871 -0.0057144165q0.35084534 0.18513489 0.575058 0.917202q0.8053436 2.6294708 -3.5052338 3.974739l-4.668564 1.4569855zm-0.6972809 -16.788986q-0.58169556 0.18154144 -0.8434448 1.8345795q-0.26174927 1.653038 -0.12522888 4.3930283q0.15144348 2.7353363 0.68559265 5.973236q1.6528015 -2.660057 2.030182 -5.4294853q0.38771057 -2.7890205 -0.22087097 -4.776066q-0.6909485 -2.25597 -1.5262299 -1.9952927z" fill-rule="nonzero"/></g></g></svg>